<svg width="802" height="620" viewBox="0 0 802 620" fill="none" xmlns="http://www.w3.org/2000/svg">
<path d="M452.717 143.798C449.661 137.711 446.893 133.055 444.945 128.078C443.041 123.214 440.001 121.837 434.955 121.932C418.023 122.252 401.071 122.548 384.149 122.055C344.331 120.893 315.751 139.477 295.531 172.275C282.644 193.177 270.864 214.757 258.384 235.913C251.939 246.84 245.593 257.239 234.285 264.985C215.908 277.57 205.172 296.611 204.065 318.933C202.742 345.617 202.259 372.531 204.226 399.139C206.585 431.059 230.29 456.249 261.936 462.018C276.016 464.587 290.762 463.942 305.198 463.825C309.135 463.793 314.113 461.346 316.778 458.367C326.778 447.187 336.039 435.346 345.539 423.72C354.519 412.731 365.594 406.838 380.266 407.044C411.675 407.485 443.095 407.208 474.509 407.26C477.414 407.265 480.319 407.525 483.496 407.68V421.681C479.622 421.681 476.151 421.678 472.68 421.682C441.811 421.717 410.938 421.477 380.079 422.037C374.209 422.144 366.743 423.743 362.874 427.556C351.94 438.327 342.491 450.606 331.293 463.65H490.314V247.122H279.419C279.614 245.503 279.472 244.592 279.834 243.979C293.423 220.949 306.013 197.239 320.988 175.145C335.239 154.124 355.956 142.892 382.343 143.652C399.539 144.146 416.76 143.781 433.97 143.798C439.85 143.804 445.729 143.798 452.717 143.798Z" fill="white"/>
<path d="M501.615 1.3798C498.182 3.34344 496.031 4.35416 494.116 5.70042C435.635 46.8388 440.462 134.837 503.389 168.781C510.205 172.457 511.631 176.43 511.618 183.239C511.454 267.58 511.507 351.921 511.507 436.262C511.507 451.547 511.322 466.836 511.577 482.116C511.89 500.866 524.719 516.047 542.47 519.212C566.484 523.492 586.513 505.738 586.526 479.898C586.578 380.545 586.594 281.191 586.416 181.837C586.405 175.655 588.013 172.396 593.888 169.389C651.82 139.732 663.06 60.1682 615.804 15.3834C610.418 10.2791 604.182 6.07003 596.513 0.000502938V10.5858C596.512 29.6926 596.367 48.8014 596.608 67.905C596.67 72.8575 595.205 75.7926 590.693 78.2529C578.24 85.0451 566.228 92.6436 553.743 99.3687C551.265 100.703 546.839 100.71 544.367 99.377C531.882 92.6488 519.862 85.0616 507.424 78.2405C502.935 75.7782 501.495 72.7811 501.552 67.8586C501.773 49.0275 501.625 30.1922 501.615 11.3591C501.613 8.48691 501.615 5.61577 501.615 1.3798Z" fill="white"/>
<path d="M450.249 8.22192C449.933 8.15791 448.931 7.89256 447.91 7.75628C401.623 1.61243 355.752 4.43813 310.467 15.2681C204.653 40.5734 121.93 99.0903 62.6947 190.172C24.0623 249.575 3.94209 315.245 0.470806 385.966C-1.37173 423.524 2.24518 460.657 10.4209 497.339C13.383 510.631 22.4563 519.364 33.8286 520.315C52.5008 521.877 64.7603 506.865 61.5617 487.259C58.0532 465.756 53.5285 444.22 52.474 422.551C48.352 337.838 71.7349 260.958 123.791 193.905C186.635 112.953 269.725 67.4563 372.045 58.3825C390.678 56.7296 409.584 58.1471 426.65 58.1471C434.966 40.5549 442.581 24.4452 450.249 8.22192Z" fill="white"/>
<path d="M648.398 160.499C649.172 161.336 650.824 163.133 652.484 164.921C722.955 240.792 755.26 330.267 747.552 433.66C746.259 450.997 742.636 468.186 739.624 485.363C737.837 495.555 738.03 504.964 745.796 512.826C760.332 527.542 784.944 521.502 789.667 500.89C794.524 479.69 798.472 458.014 799.942 436.352C808.553 309.392 766.415 201.683 675.035 113.176C673.631 111.815 671.792 110.9 671.237 110.519C663.646 127.13 656.327 143.147 648.398 160.499Z" fill="white"/>
<path d="M216.25 454.786C216.25 465.657 215.906 474.097 216.349 482.497C216.774 490.587 217.159 498.847 219.112 506.644C221.525 516.275 226.511 519.386 236.317 519.488C251.033 519.639 265.756 519.376 280.465 519.72C288.4 519.906 293.475 516.193 296.545 509.482C300.979 499.787 300.665 489.606 299.411 478.281C269.27 480.482 240.915 477.634 216.25 454.786Z" fill="white"/>
<path d="M195.39 256.793C195.5 256.169 195.609 255.543 195.719 254.917C201.158 254.917 206.662 255.446 212.026 254.809C223.781 253.413 233.907 244.627 235.572 235.116C237.082 226.491 232.284 216.277 223.015 212.496C205.247 205.246 186.919 205.285 169.133 212.564C161.028 215.88 156.468 222.92 156.507 231.949C156.547 241.046 161.509 247.986 169.547 251.003C177.732 254.076 186.741 254.954 195.39 256.793Z" fill="white"/>
<path d="M483.522 304.065C479.931 304.065 476.744 304.066 473.557 304.065C432.906 304.048 392.256 303.959 351.606 304.055C338.442 304.086 326.323 301.046 315.087 294.029C304.223 287.245 293.048 280.958 282.075 274.345C277.843 271.795 273.662 270.828 270.69 275.589C267.602 280.537 269.835 284.298 274.556 287.058C286.086 293.801 297.685 300.437 309.015 307.504C321.45 315.259 334.95 318.62 349.448 318.602C391.189 318.551 432.93 318.509 474.671 318.426C477.546 318.419 480.422 318.104 483.522 317.92V304.065ZM220.441 326.929C220.323 338.027 225.2 347.886 234.752 353.732C241.689 357.978 248.9 362.112 256.509 364.856C273.832 371.106 291.626 375.288 310.086 369.785C320.819 366.585 323.894 359.926 317.428 350.733C300.59 326.787 277.963 310.097 249.492 302.749C234.738 298.941 220.604 311.635 220.441 326.929ZM452.718 143.799C445.73 143.799 439.85 143.804 433.969 143.798C416.759 143.781 399.539 144.147 382.343 143.652C355.956 142.893 335.239 154.124 320.988 175.146C306.012 197.239 293.423 220.95 279.834 243.98C279.473 244.593 279.614 245.502 279.419 247.122H490.314V463.649H331.292C342.492 450.606 351.94 438.327 362.874 427.555C366.743 423.743 374.209 422.144 380.079 422.038C410.938 421.477 441.811 421.718 472.68 421.683C476.151 421.679 479.622 421.682 483.496 421.682V407.679C480.318 407.525 477.414 407.265 474.508 407.26C443.094 407.207 411.676 407.485 380.266 407.044C365.595 406.839 354.519 412.732 345.539 423.72C336.04 435.346 326.778 447.187 316.778 458.367C314.113 461.347 309.135 463.794 305.198 463.826C290.762 463.941 276.016 464.586 261.936 462.019C230.29 456.249 206.585 431.059 204.226 399.139C202.258 372.531 202.742 345.617 204.065 318.933C205.172 296.611 215.908 277.57 234.285 264.984C245.592 257.24 251.938 246.839 258.385 235.912C270.864 214.757 282.644 193.177 295.53 172.276C315.751 139.477 344.33 120.894 384.149 122.055C401.071 122.549 418.023 122.253 434.955 121.932C440.002 121.837 443.041 123.215 444.945 128.079C446.893 133.055 449.661 137.712 452.718 143.799Z" fill="white"/>
<path d="M549.405 468.602C542.693 468.396 536.261 474.545 536.065 481.357C535.871 488.141 541.925 494.447 548.778 494.597C555.816 494.752 561.91 488.997 562.107 482.008C562.297 475.284 556.164 468.811 549.405 468.602ZM501.615 1.37925C501.615 5.61522 501.613 8.4874 501.615 11.3585C501.624 30.1927 501.773 49.0269 501.552 67.858C501.494 72.7805 502.935 75.7776 507.425 78.2399C519.863 85.061 531.882 92.6482 544.366 99.3764C546.84 100.71 551.265 100.702 553.742 99.3681C566.228 92.643 578.24 85.0445 590.693 78.2533C595.205 75.7921 596.67 72.858 596.607 67.9045C596.367 48.8008 596.511 29.693 596.512 10.5863V-4.05862e-05C604.182 6.07052 610.418 10.2786 615.804 15.3828C663.06 60.1687 651.819 139.732 593.887 169.388C588.013 172.395 586.405 175.656 586.416 181.837C586.595 281.191 586.577 380.544 586.526 479.897C586.513 505.738 566.483 523.491 542.469 519.212C524.719 516.047 511.89 500.865 511.577 482.117C511.322 466.835 511.507 451.546 511.507 436.262C511.507 351.921 511.455 267.58 511.618 183.239C511.631 176.429 510.205 172.456 503.388 168.78C440.462 134.836 435.636 46.8392 494.117 5.69988C496.031 4.35362 498.181 3.34289 501.615 1.37925Z" fill="white"/>
<path d="M450.249 8.22192C442.581 24.4452 434.966 40.5549 426.65 58.1471C409.584 58.1471 390.678 56.7296 372.045 58.3825C269.725 67.4563 186.635 112.953 123.791 193.905C71.7349 260.958 48.352 337.838 52.474 422.551C53.5285 444.22 58.0532 465.756 61.5617 487.259C64.7603 506.865 52.5008 521.877 33.8286 520.315C22.4563 519.364 13.383 510.631 10.4209 497.339C2.24518 460.657 -1.37173 423.524 0.470806 385.966C3.94209 315.245 24.0623 249.575 62.6947 190.172C121.93 99.0903 204.653 40.5734 310.467 15.2681C355.752 4.43813 401.623 1.61243 447.91 7.75628C448.931 7.89256 449.933 8.15791 450.249 8.22192Z" fill="white"/>
<path d="M648.398 160.499C656.327 143.147 663.646 127.13 671.237 110.519C671.792 110.9 673.631 111.815 675.035 113.176C766.415 201.683 808.553 309.392 799.942 436.352C798.472 458.014 794.524 479.69 789.667 500.89C784.944 521.502 760.332 527.542 745.796 512.826C738.03 504.964 737.837 495.555 739.624 485.363C742.636 468.186 746.259 450.997 747.552 433.66C755.26 330.267 722.955 240.792 652.484 164.921C650.824 163.133 649.172 161.336 648.398 160.499Z" fill="white"/>
<path d="M216.25 454.786C240.915 477.634 269.27 480.482 299.411 478.281C300.665 489.606 300.979 499.787 296.545 509.482C293.475 516.193 288.4 519.906 280.465 519.72C265.756 519.376 251.033 519.639 236.317 519.488C226.511 519.386 221.525 516.275 219.112 506.644C217.159 498.847 216.774 490.587 216.349 482.497C215.906 474.097 216.25 465.657 216.25 454.786Z" fill="white"/>
<path d="M195.39 256.793C186.741 254.954 177.732 254.076 169.547 251.003C161.509 247.986 156.547 241.046 156.507 231.949C156.468 222.92 161.028 215.88 169.133 212.564C186.919 205.285 205.247 205.246 223.015 212.496C232.284 216.277 237.082 226.491 235.572 235.116C233.907 244.627 223.781 253.413 212.026 254.809C206.662 255.446 201.158 254.917 195.719 254.917C195.609 255.543 195.5 256.169 195.39 256.793Z" fill="white"/>
<path d="M220.441 326.93C220.604 311.636 234.738 298.941 249.492 302.749C277.963 310.097 300.59 326.786 317.428 350.733C323.894 359.927 320.819 366.585 310.086 369.785C291.626 375.289 273.832 371.106 256.509 364.855C248.9 362.111 241.689 357.977 234.752 353.732C225.2 347.887 220.323 338.027 220.441 326.93Z" fill="#00BDF9"/>
<path d="M483.522 304.065V317.92C480.422 318.104 477.546 318.419 474.671 318.425C432.93 318.509 391.189 318.551 349.448 318.602C334.95 318.62 321.45 315.259 309.015 307.504C297.685 300.437 286.086 293.8 274.556 287.058C269.835 284.298 267.602 280.537 270.69 275.589C273.662 270.828 277.843 271.795 282.075 274.345C293.048 280.958 304.223 287.245 315.087 294.029C326.323 301.046 338.442 304.086 351.606 304.055C392.256 303.959 432.906 304.048 473.557 304.065C476.744 304.066 479.931 304.065 483.522 304.065Z" fill="#00BDF9"/>
<path d="M549.405 468.603C556.164 468.811 562.297 475.284 562.107 482.008C561.91 488.997 555.816 494.752 548.778 494.598C541.925 494.447 535.871 488.141 536.066 481.357C536.261 474.545 542.693 468.396 549.405 468.603Z" fill="white"/>
<path d="M75.8953 590.058H109.188V596.333H66.8229V590.578L98.7164 544.456H67.3425V538.142H107.909V543.777L75.8953 590.058ZM163.862 596.333H156.149L126.853 551.491V596.333H119.139V538.142H126.853L156.229 583.184V538.142H163.862V596.333ZM229.927 581.146H205.548L200.072 596.333H192.159L214.38 538.142H221.095L243.356 596.333H235.483L229.927 581.146ZM207.866 574.831H227.649L217.738 547.614L207.866 574.831ZM291.436 538.142V577.709C291.41 583.197 289.678 587.687 286.241 591.178C282.83 594.668 278.194 596.626 272.332 597.053L270.294 597.133C263.926 597.133 258.85 595.414 255.066 591.977C251.283 588.54 249.365 583.81 249.311 577.789V538.142H256.905V577.549C256.905 581.759 258.064 585.036 260.382 587.381C262.7 589.699 266.004 590.858 270.294 590.858C274.637 590.858 277.954 589.699 280.246 587.381C282.564 585.063 283.723 581.799 283.723 577.589V538.142H291.436ZM343.753 544.456H325.048V596.333H317.415V544.456H298.75V538.142H343.753V544.456ZM396.029 569.116C396.029 574.818 395.07 579.8 393.152 584.063C391.233 588.3 388.516 591.537 384.999 593.775C381.481 596.014 377.378 597.133 372.689 597.133C368.106 597.133 364.043 596.014 360.499 593.775C356.955 591.511 354.197 588.3 352.226 584.143C350.281 579.96 349.282 575.124 349.228 569.635V565.439C349.228 559.844 350.201 554.901 352.146 550.611C354.091 546.321 356.835 543.044 360.379 540.779C363.949 538.488 368.026 537.342 372.609 537.342C377.272 537.342 381.375 538.475 384.919 540.739C388.489 542.978 391.233 546.242 393.152 550.531C395.07 554.794 396.029 559.764 396.029 565.439V569.116ZM388.396 565.359C388.396 558.458 387.01 553.169 384.239 549.492C381.468 545.789 377.591 543.937 372.609 543.937C367.76 543.937 363.936 545.789 361.138 549.492C358.367 553.169 356.942 558.285 356.862 564.839V569.116C356.862 575.804 358.261 581.066 361.058 584.903C363.883 588.713 367.76 590.618 372.689 590.618C377.645 590.618 381.481 588.819 384.199 585.222C386.917 581.599 388.316 576.416 388.396 569.675V565.359ZM450.344 577.869C449.625 584.023 447.347 588.78 443.51 592.137C439.7 595.467 434.624 597.133 428.283 597.133C421.408 597.133 415.893 594.668 411.736 589.739C407.606 584.809 405.541 578.215 405.541 569.955V564.36C405.541 558.951 406.501 554.195 408.419 550.092C410.364 545.988 413.109 542.844 416.652 540.66C420.196 538.448 424.299 537.342 428.962 537.342C435.144 537.342 440.099 539.074 443.83 542.538C447.56 545.975 449.731 550.744 450.344 556.846H442.631C441.965 552.21 440.512 548.853 438.274 546.774C436.063 544.696 432.959 543.657 428.962 543.657C424.059 543.657 420.209 545.469 417.412 549.092C414.641 552.716 413.255 557.872 413.255 564.56V570.195C413.255 576.51 414.574 581.532 417.212 585.262C419.85 588.993 423.54 590.858 428.283 590.858C432.546 590.858 435.81 589.899 438.074 587.98C440.366 586.035 441.885 582.665 442.631 577.869H450.344ZM493.748 569.436H468.529V590.058H497.825V596.333H460.856V538.142H497.425V544.456H468.529V563.161H493.748V569.436ZM552.1 596.333H544.386L515.09 551.491V596.333H507.377V538.142H515.09L544.466 583.184V538.142H552.1V596.333ZM604.736 544.456H586.032V596.333H578.398V544.456H559.733V538.142H604.736V544.456ZM646.262 569.436H621.042V590.058H650.338V596.333H613.369V538.142H649.938V544.456H621.042V563.161H646.262V569.436ZM681.232 572.793H667.564V596.333H659.85V538.142H679.114C685.669 538.142 690.705 539.634 694.222 542.618C697.765 545.602 699.537 549.945 699.537 555.647C699.537 559.271 698.551 562.428 696.58 565.119C694.635 567.81 691.917 569.822 688.426 571.154L702.095 595.854V596.333H693.862L681.232 572.793ZM667.564 566.518H679.354C683.164 566.518 686.188 565.532 688.426 563.56C690.691 561.589 691.824 558.951 691.824 555.647C691.824 552.05 690.745 549.292 688.586 547.374C686.455 545.456 683.364 544.483 679.314 544.456H667.564V566.518Z" fill="white"/>
</svg>
