<svg width="323" height="331" viewBox="0 0 323 331" fill="none" xmlns="http://www.w3.org/2000/svg">
<path d="M161.5 1.0832L322 67.9013V280.532L161.5 329.954L1 280.532V67.9013L161.5 1.0832Z" fill="white" stroke="#01A7DB" stroke-width="2"/>
<path d="M223.963 165.5C223.963 172.58 222.581 179.314 219.817 185.703C217.053 192.091 213.191 197.767 208.231 202.731L215.427 220.188C216.321 222.303 216.301 224.134 215.366 225.681C214.431 227.227 212.825 228 210.549 228H194.329C192.053 228 189.817 227.227 187.622 225.681C185.427 224.134 183.882 222.303 182.988 220.188L182.012 217.868C176.483 219.414 170.955 220.188 165.427 220.188C162.256 220.188 159.126 219.943 156.036 219.455L155.67 220.188C154.776 222.303 153.231 224.134 151.036 225.681C148.841 227.227 146.605 228 144.329 228H128.109C125.833 228 124.227 227.227 123.292 225.681C122.357 224.134 122.337 222.303 123.231 220.188L128.719 206.76C120.996 199.924 115.711 191.379 112.866 181.125H106.89C104.776 181.125 102.947 179.599 101.402 176.547C99.8574 173.496 99.0851 169.813 99.0851 165.5C99.0851 161.187 99.8574 157.504 101.402 154.453C102.947 151.401 104.776 149.875 106.89 149.875H112.988C114.695 143.771 117.296 138.238 120.792 133.273C120.386 131.727 119.817 129.815 119.085 127.536C118.353 125.257 117.723 123.264 117.195 121.555C116.666 119.846 116.158 117.974 115.67 115.939C115.183 113.905 114.898 112.176 114.817 110.751C114.735 109.327 114.837 108.005 115.122 106.784C115.406 105.563 116.036 104.628 117.012 103.977C117.988 103.326 119.329 103 121.036 103C125.183 103 129.248 104.099 133.231 106.296C137.215 108.493 140.63 111.423 143.475 115.085C150.305 112.237 157.622 110.812 165.427 110.812C178.028 110.812 189.451 114.271 199.695 121.188C202.296 119.479 205.183 118.625 208.353 118.625C212.662 118.625 216.341 120.151 219.39 123.203C222.439 126.254 223.963 129.937 223.963 134.25C223.963 138.4 222.54 141.981 219.695 144.992C222.54 151.584 223.963 158.42 223.963 165.5ZM138.048 142.062C135.894 142.062 134.065 142.815 132.561 144.321C131.057 145.826 130.305 147.657 130.305 149.814C130.305 151.971 131.057 153.822 132.561 155.368C134.065 156.914 135.894 157.688 138.048 157.688C140.203 157.688 142.053 156.914 143.597 155.368C145.142 153.822 145.914 151.971 145.914 149.814C145.914 147.657 145.142 145.826 143.597 144.321C142.053 142.815 140.203 142.062 138.048 142.062Z" fill="#00BDF9"/>
</svg>
