<svg width="323" height="331" viewBox="0 0 323 331" fill="none" xmlns="http://www.w3.org/2000/svg">
<path d="M161.5 1.0832L322 67.9013V280.532L161.5 329.954L1 280.532V67.9013L161.5 1.0832Z" fill="white" stroke="#00BDF9" stroke-width="2"/>
<path d="M213.174 147.225C210.308 150.093 206.752 152.175 202.848 153.27C198.944 154.365 194.824 154.435 190.885 153.475L149.471 194.879C150.433 198.82 150.363 202.942 149.268 206.848C148.174 210.754 146.092 214.312 143.223 217.18C137.176 223.227 128.67 225.301 120.932 223.428L137.061 207.295L133.393 193.609L119.703 189.939L103.574 206.072C102.613 202.132 102.683 198.011 103.778 194.105C104.873 190.2 106.956 186.643 109.826 183.777C112.692 180.909 116.248 178.827 120.152 177.732C124.056 176.637 128.176 176.567 132.115 177.527L173.529 136.121C172.568 132.18 172.637 128.058 173.732 124.152C174.826 120.246 176.908 116.688 179.777 113.82C185.824 107.773 194.33 105.699 202.068 107.572L185.938 123.707L189.606 137.393L203.297 141.063L219.422 124.93C220.386 128.87 220.317 132.991 219.223 136.897C218.128 140.802 216.045 144.359 213.174 147.225" fill="#00BDF9"/>
</svg>
