<svg width="323" height="331" viewBox="0 0 323 331" fill="none" xmlns="http://www.w3.org/2000/svg">
<path d="M161.5 1.0832L322 67.9013V280.532L161.5 329.954L1 280.532V67.9013L161.5 1.0832Z" fill="white" stroke="#00BDF9" stroke-width="2"/>
<path d="M161.5 220.188C150.684 220.188 140.111 216.98 131.117 210.971C122.124 204.962 115.115 196.421 110.975 186.428C106.836 176.435 105.753 165.439 107.863 154.831C109.973 144.223 115.182 134.478 122.83 126.83C130.478 119.182 140.223 113.973 150.831 111.863C161.439 109.753 172.435 110.836 182.428 114.975C192.421 119.115 200.962 126.124 206.971 135.117C212.98 144.111 216.188 154.684 216.188 165.5C216.188 180.004 210.426 193.914 200.17 204.17C189.914 214.426 176.004 220.188 161.5 220.188ZM161.5 118.625C152.229 118.625 143.166 121.374 135.458 126.525C127.749 131.676 121.741 138.996 118.193 147.562C114.645 156.127 113.717 165.552 115.526 174.645C117.334 183.738 121.799 192.09 128.354 198.646C134.91 205.201 143.262 209.666 152.355 211.474C161.448 213.283 170.873 212.355 179.438 208.807C188.004 205.259 195.324 199.251 200.475 191.542C205.626 183.834 208.375 174.771 208.375 165.5C208.375 153.068 203.436 141.145 194.646 132.354C185.855 123.564 173.932 118.625 161.5 118.625V118.625Z" fill="#00BDF9"/>
<path d="M179.43 188.938L157.594 167.102V130.344H165.406V163.859L184.938 183.43L179.43 188.938Z" fill="#00BDF9"/>
</svg>
